<?xml version="1.0" standalone="no"?>
<!DOCTYPE svg PUBLIC "-//W3C//DTD SVG 20010904//EN"
 "http://www.w3.org/TR/2001/REC-SVG-20010904/DTD/svg10.dtd">
<svg version="1.0" xmlns="http://www.w3.org/2000/svg"
 width="264.000000pt" height="264.000000pt" viewBox="0 0 264.000000 264.000000"
 preserveAspectRatio="xMidYMid meet">
<metadata>
Created by potrace 1.11, written by Peter Selinger 2001-2013
</metadata>
<g transform="translate(0.000000,264.000000) scale(0.100000,-0.100000)"
fill="#000000" stroke="none">
<path d="M1280 2240 c-71 -9 -119 -25 -201 -66 -68 -34 -217 -146 -226 -171
-3 -7 -28 -31 -55 -53 -57 -45 -54 -48 45 -52 l69 -3 123 -235 c68 -129 128
-236 133 -238 6 -2 26 4 45 12 42 17 41 12 57 266 6 90 13 166 15 168 6 6 195
-148 195 -159 0 -4 -42 -43 -94 -85 l-94 -77 -4 -59 c-5 -66 -6 -67 -84 -94
-52 -18 -54 -18 -67 0 -13 17 -22 12 -135 -74 l-122 -93 0 -81 c0 -96 -26
-163 -83 -213 -93 -82 -205 -54 -272 68 -27 49 -30 63 -30 144 0 97 14 136 71
205 l28 32 -45 -6 c-67 -11 -164 -62 -203 -107 -56 -66 -71 -105 -71 -189 0
-65 4 -82 29 -128 107 -192 374 -225 528 -66 l43 44 5 -297 5 -298 43 -3 42
-3 0 394 c0 216 3 397 6 400 4 3 15 2 25 -4 18 -9 19 -31 21 -397 l3 -387 45
0 45 0 3 359 c2 335 3 358 20 351 160 -62 367 -44 551 46 103 51 212 154 250
237 l24 52 114 0 113 0 0 -205 0 -205 45 0 45 0 0 238 c0 172 -3 241 -12 250
-8 8 -54 12 -141 12 l-128 0 7 73 c3 39 9 75 11 80 2 4 74 7 159 7 l154 0 0
-205 0 -205 45 0 45 0 0 240 c0 226 -1 240 -19 250 -12 6 -98 10 -210 10
l-190 0 -11 43 c-41 164 -147 308 -285 386 -126 72 -295 108 -425 91z"/>
</g>
</svg>
